<svg width="14" height="14" viewBox="0 0 14 14" fill="none" xmlns="http://www.w3.org/2000/svg">
<path d="M7.00003 1.16608C10.2224 1.16608 12.8345 3.77824 12.8345 7.00058C12.8345 10.2223 10.2224 12.8345 7.00003 12.8345C3.77769 12.8345 1.16553 10.2223 1.16553 7.00058C1.16553 3.77824 3.77769 1.16608 7.00003 1.16608ZM7.00003 2.04108C6.34425 2.03396 5.69357 2.15698 5.08565 2.40302C4.47774 2.64905 3.92465 3.01321 3.45841 3.47442C2.99217 3.93563 2.62204 4.48474 2.36942 5.08995C2.11681 5.69516 1.98674 6.34447 1.98674 7.00028C1.98674 7.6561 2.11681 8.30541 2.36942 8.91062C2.62204 9.51583 2.99217 10.0649 3.45841 10.5261C3.92465 10.9874 4.47774 11.3515 5.08565 11.5976C5.69357 11.8436 6.34425 11.9666 7.00003 11.9595C8.30204 11.9395 9.54397 11.4083 10.4576 10.4805C11.3713 9.55267 11.8835 8.30274 11.8835 7.00058C11.8835 5.69841 11.3713 4.44848 10.4576 3.52068C9.54397 2.59287 8.30204 2.06105 7.00003 2.04108ZM6.99769 3.49999C7.92564 3.49999 8.81558 3.86862 9.47174 4.52478C10.1279 5.18094 10.4965 6.07088 10.4965 6.99883C10.4965 7.92677 10.1279 8.81672 9.47174 9.47288C8.81558 10.129 7.92564 10.4977 6.99769 10.4977C6.06975 10.4977 5.1798 10.129 4.52365 9.47288C3.86749 8.81672 3.49886 7.92677 3.49886 6.99883C3.49886 6.07088 3.86749 5.18094 4.52365 4.52478C5.1798 3.86862 6.06975 3.49999 6.99769 3.49999Z" fill="#9E00B7"/>
</svg>
