<svg width="14" height="14" viewBox="0 0 14 14" fill="none" xmlns="http://www.w3.org/2000/svg">
<path d="M7.00003 12.8345C10.2224 12.8345 12.8345 10.2223 12.8345 7.00058C12.8345 3.77824 10.2224 1.16608 7.00003 1.16608C3.77769 1.16608 1.16553 3.77824 1.16553 7.00058C1.16553 10.2223 3.77769 12.8345 7.00003 12.8345ZM7.00003 11.9595C6.34241 11.9696 5.68936 11.8488 5.07888 11.6041C4.46839 11.3594 3.91267 10.9957 3.44406 10.5343C2.97545 10.0728 2.60331 9.52271 2.34929 8.91605C2.09528 8.30939 1.96446 7.65827 1.96446 7.00058C1.96446 6.34289 2.09528 5.69176 2.34929 5.0851C2.60331 4.47844 2.97545 3.92837 3.44406 3.46689C3.91267 3.00541 4.46839 2.64175 5.07888 2.39707C5.68936 2.15239 6.34241 2.03157 7.00003 2.04166C8.30597 2.05582 9.55362 2.58455 10.4721 3.51304C11.3906 4.44153 11.9057 5.69484 11.9057 7.00087C11.9057 8.30689 11.3906 9.5602 10.4721 10.4887C9.55362 11.4172 8.30597 11.9453 7.00003 11.9595Z" fill="#9E00B7"/>
</svg>
